<?xml version="1.0" standalone="no"?>
<!DOCTYPE svg PUBLIC "-//W3C//DTD SVG 20010904//EN"
 "http://www.w3.org/TR/2001/REC-SVG-20010904/DTD/svg10.dtd">
<svg version="1.0" xmlns="http://www.w3.org/2000/svg"
 width="512.000000pt" height="512.000000pt" viewBox="0 0 512.000000 512.000000"
 preserveAspectRatio="xMidYMid meet">

<g transform="translate(0.000000,512.000000) scale(0.100000,-0.100000)"
fill="#000000" stroke="none">
<path d="M4223 5105 c-34 -7 -95 -30 -135 -51 -68 -35 -141 -106 -1123 -1084
l-1050 -1047 -50 13 c-219 60 -537 59 -755 -2 -278 -78 -503 -214 -702 -422
-292 -307 -441 -741 -398 -1158 74 -721 624 -1271 1344 -1344 417 -43 850 106
1158 398 243 232 397 518 452 844 30 177 18 444 -28 614 l-14 52 244 243 244
244 0 292 0 293 320 0 320 0 0 320 0 320 293 0 293 0 180 183 c301 304 308
320 302 783 -3 277 -3 279 -29 334 -33 70 -89 126 -159 159 l-55 26 -295 2
c-221 2 -311 -1 -357 -12z m627 -210 c59 -31 62 -47 58 -358 -4 -352 8 -321
-207 -539 l-155 -158 -353 0 -353 0 0 -320 0 -320 -320 0 -320 0 0 -353 0
-352 -259 -259 -259 -259 20 -56 c234 -673 -119 -1401 -794 -1639 -139 -50
-243 -66 -413 -66 -163 0 -262 15 -400 60 -380 124 -696 440 -820 819 -44 135
-59 238 -59 400 0 170 16 274 66 413 238 674 971 1030 1638 794 l55 -20 1090
1088 c766 763 1102 1092 1130 1105 67 31 91 33 363 34 217 1 268 -2 292 -14z"/>
<path d="M1195 1471 c-168 -78 -164 -314 7 -385 134 -56 288 48 288 194 0 150
-160 253 -295 191z"/>
</g>
</svg>
